<?xml version="1.0" encoding="utf-8" standalone="no"?>
<!DOCTYPE svg PUBLIC "-//W3C//DTD SVG 1.1//EN"
  "http://www.w3.org/Graphics/SVG/1.1/DTD/svg11.dtd">
<svg xmlns:xlink="http://www.w3.org/1999/xlink" width="402.87268pt" height="312.512625pt" viewBox="0 0 402.87268 312.512625" xmlns="http://www.w3.org/2000/svg" version="1.1">
 <metadata>
  <rdf:RDF xmlns:dc="http://purl.org/dc/elements/1.1/" xmlns:cc="http://creativecommons.org/ns#" xmlns:rdf="http://www.w3.org/1999/02/22-rdf-syntax-ns#">
   <cc:Work>
    <dc:type rdf:resource="http://purl.org/dc/dcmitype/StillImage"/>
    <dc:date>2023-05-26T08:11:04.071737</dc:date>
    <dc:format>image/svg+xml</dc:format>
    <dc:creator>
     <cc:Agent>
      <dc:title>Matplotlib v3.7.1, https://matplotlib.org/</dc:title>
     </cc:Agent>
    </dc:creator>
   </cc:Work>
  </rdf:RDF>
 </metadata>
 <defs>
  <style type="text/css">*{stroke-linejoin: round; stroke-linecap: butt}</style>
 </defs>
 <g id="figure_1">
  <g id="patch_1">
   <path d="M 0 312.512625 
L 402.87268 312.512625 
L 402.87268 0 
L 0 0 
z
" style="fill: #ffffff"/>
  </g>
  <g id="axes_1">
   <g id="patch_2">
    <path d="M 34.240625 288.6345 
L 391.360625 288.6345 
L 391.360625 22.5225 
L 34.240625 22.5225 
z
" style="fill: #ffffff"/>
   </g>
   <g id="PolyCollection_1">
    <defs>
     <path id="m79ed197319" d="M 50.473352 -24.121856 
L 50.473352 -23.878125 
L 52.104782 -23.878125 
L 53.736212 -23.878125 
L 55.367642 -23.878125 
L 56.999072 -23.878125 
L 58.630502 -23.878125 
L 60.261932 -23.878125 
L 61.893361 -23.878125 
L 63.524791 -23.878125 
L 65.156221 -23.878125 
L 66.787651 -23.878125 
L 68.419081 -23.878125 
L 70.050511 -23.878125 
L 71.681941 -23.878125 
L 73.313371 -23.878125 
L 74.9448 -23.878125 
L 76.57623 -23.878125 
L 78.20766 -23.878125 
L 79.83909 -23.878125 
L 81.47052 -23.878125 
L 83.10195 -23.878125 
L 84.73338 -23.878125 
L 86.36481 -23.878125 
L 87.996239 -23.878125 
L 89.627669 -23.878125 
L 91.259099 -23.878125 
L 92.890529 -23.878125 
L 94.521959 -23.878125 
L 96.153389 -23.878125 
L 97.784819 -23.878125 
L 99.416249 -23.878125 
L 101.047678 -23.878125 
L 102.679108 -23.878125 
L 104.310538 -23.878125 
L 105.941968 -23.878125 
L 107.573398 -23.878125 
L 109.204828 -23.878125 
L 110.836258 -23.878125 
L 112.467688 -23.878125 
L 114.099117 -23.878125 
L 115.730547 -23.878125 
L 117.361977 -23.878125 
L 118.993407 -23.878125 
L 120.624837 -23.878125 
L 122.256267 -23.878125 
L 123.887697 -23.878125 
L 125.519127 -23.878125 
L 127.150556 -23.878125 
L 128.781986 -23.878125 
L 130.413416 -23.878125 
L 132.044846 -23.878125 
L 133.676276 -23.878125 
L 135.307706 -23.878125 
L 136.939136 -23.878125 
L 138.570566 -23.878125 
L 140.201995 -23.878125 
L 141.833425 -23.878125 
L 143.464855 -23.878125 
L 145.096285 -23.878125 
L 146.727715 -23.878125 
L 148.359145 -23.878125 
L 149.990575 -23.878125 
L 151.622005 -23.878125 
L 153.253435 -23.878125 
L 154.884864 -23.878125 
L 156.516294 -23.878125 
L 158.147724 -23.878125 
L 159.779154 -23.878125 
L 161.410584 -23.878125 
L 163.042014 -23.878125 
L 164.673444 -23.878125 
L 166.304874 -23.878125 
L 167.936303 -23.878125 
L 169.567733 -23.878125 
L 171.199163 -23.878125 
L 172.830593 -23.878125 
L 174.462023 -23.878125 
L 176.093453 -23.878125 
L 177.724883 -23.878125 
L 179.356313 -23.878125 
L 180.987742 -23.878125 
L 182.619172 -23.878125 
L 184.250602 -23.878125 
L 185.882032 -23.878125 
L 187.513462 -23.878125 
L 189.144892 -23.878125 
L 190.776322 -23.878125 
L 192.407752 -23.878125 
L 194.039181 -23.878125 
L 195.670611 -23.878125 
L 197.302041 -23.878125 
L 198.933471 -23.878125 
L 200.564901 -23.878125 
L 202.196331 -23.878125 
L 203.827761 -23.878125 
L 205.459191 -23.878125 
L 207.09062 -23.878125 
L 208.72205 -23.878125 
L 210.35348 -23.878125 
L 211.98491 -23.878125 
L 213.61634 -23.878125 
L 215.24777 -23.878125 
L 216.8792 -23.878125 
L 218.51063 -23.878125 
L 220.142059 -23.878125 
L 221.773489 -23.878125 
L 223.404919 -23.878125 
L 225.036349 -23.878125 
L 226.667779 -23.878125 
L 228.299209 -23.878125 
L 229.930639 -23.878125 
L 231.562069 -23.878125 
L 233.193498 -23.878125 
L 234.824928 -23.878125 
L 236.456358 -23.878125 
L 238.087788 -23.878125 
L 239.719218 -23.878125 
L 241.350648 -23.878125 
L 242.982078 -23.878125 
L 244.613508 -23.878125 
L 246.244937 -23.878125 
L 247.876367 -23.878125 
L 249.507797 -23.878125 
L 251.139227 -23.878125 
L 252.770657 -23.878125 
L 254.402087 -23.878125 
L 256.033517 -23.878125 
L 257.664947 -23.878125 
L 259.296376 -23.878125 
L 260.927806 -23.878125 
L 262.559236 -23.878125 
L 264.190666 -23.878125 
L 265.822096 -23.878125 
L 267.453526 -23.878125 
L 269.084956 -23.878125 
L 270.716386 -23.878125 
L 272.347815 -23.878125 
L 273.979245 -23.878125 
L 275.610675 -23.878125 
L 277.242105 -23.878125 
L 278.873535 -23.878125 
L 280.504965 -23.878125 
L 282.136395 -23.878125 
L 283.767825 -23.878125 
L 285.399255 -23.878125 
L 287.030684 -23.878125 
L 288.662114 -23.878125 
L 290.293544 -23.878125 
L 291.924974 -23.878125 
L 293.556404 -23.878125 
L 295.187834 -23.878125 
L 296.819264 -23.878125 
L 298.450694 -23.878125 
L 300.082123 -23.878125 
L 301.713553 -23.878125 
L 303.344983 -23.878125 
L 304.976413 -23.878125 
L 306.607843 -23.878125 
L 308.239273 -23.878125 
L 309.870703 -23.878125 
L 311.502133 -23.878125 
L 313.133562 -23.878125 
L 314.764992 -23.878125 
L 316.396422 -23.878125 
L 318.027852 -23.878125 
L 319.659282 -23.878125 
L 321.290712 -23.878125 
L 322.922142 -23.878125 
L 324.553572 -23.878125 
L 326.185001 -23.878125 
L 327.816431 -23.878125 
L 329.447861 -23.878125 
L 331.079291 -23.878125 
L 332.710721 -23.878125 
L 334.342151 -23.878125 
L 335.973581 -23.878125 
L 337.605011 -23.878125 
L 339.23644 -23.878125 
L 340.86787 -23.878125 
L 342.4993 -23.878125 
L 344.13073 -23.878125 
L 345.76216 -23.878125 
L 347.39359 -23.878125 
L 349.02502 -23.878125 
L 350.65645 -23.878125 
L 352.287879 -23.878125 
L 353.919309 -23.878125 
L 355.550739 -23.878125 
L 357.182169 -23.878125 
L 358.813599 -23.878125 
L 360.445029 -23.878125 
L 362.076459 -23.878125 
L 363.707889 -23.878125 
L 365.339318 -23.878125 
L 366.970748 -23.878125 
L 368.602178 -23.878125 
L 370.233608 -23.878125 
L 371.865038 -23.878125 
L 373.496468 -23.878125 
L 375.127898 -23.878125 
L 375.127898 -24.01852 
L 375.127898 -24.01852 
L 373.496468 -24.05682 
L 371.865038 -24.104315 
L 370.233608 -24.162864 
L 368.602178 -24.234613 
L 366.970748 -24.322018 
L 365.339318 -24.427868 
L 363.707889 -24.555301 
L 362.076459 -24.707817 
L 360.445029 -24.889284 
L 358.813599 -25.103934 
L 357.182169 -25.356352 
L 355.550739 -25.651451 
L 353.919309 -25.994443 
L 352.287879 -26.390781 
L 350.65645 -26.846105 
L 349.02502 -27.366166 
L 347.39359 -27.956732 
L 345.76216 -28.62349 
L 344.13073 -29.371934 
L 342.4993 -30.207242 
L 340.86787 -31.13415 
L 339.23644 -32.156827 
L 337.605011 -33.278742 
L 335.973581 -34.502552 
L 334.342151 -35.82999 
L 332.710721 -37.261782 
L 331.079291 -38.797578 
L 329.447861 -40.435918 
L 327.816431 -42.174224 
L 326.185001 -44.00884 
L 324.553572 -45.935099 
L 322.922142 -47.947438 
L 321.290712 -50.039554 
L 319.659282 -52.204592 
L 318.027852 -54.435371 
L 316.396422 -56.72464 
L 314.764992 -59.065349 
L 313.133562 -61.450931 
L 311.502133 -63.875587 
L 309.870703 -66.334553 
L 308.239273 -68.824346 
L 306.607843 -71.342975 
L 304.976413 -73.890093 
L 303.344983 -76.467106 
L 301.713553 -79.077204 
L 300.082123 -81.725328 
L 298.450694 -84.418059 
L 296.819264 -87.163442 
L 295.187834 -89.970736 
L 293.556404 -92.850109 
L 291.924974 -95.812285 
L 290.293544 -98.868154 
L 288.662114 -102.028369 
L 287.030684 -105.302933 
L 285.399255 -108.700803 
L 283.767825 -112.229529 
L 282.136395 -115.894933 
L 280.504965 -119.700842 
L 278.873535 -123.64889 
L 277.242105 -127.738394 
L 275.610675 -131.966294 
L 273.979245 -136.327177 
L 272.347815 -140.813351 
L 270.716386 -145.414996 
L 269.084956 -150.120348 
L 267.453526 -154.915939 
L 265.822096 -159.786843 
L 264.190666 -164.716959 
L 262.559236 -169.689288 
L 260.927806 -174.686208 
L 259.296376 -179.689748 
L 257.664947 -184.681843 
L 256.033517 -189.644575 
L 254.402087 -194.560398 
L 252.770657 -199.412352 
L 251.139227 -204.184261 
L 249.507797 -208.86091 
L 247.876367 -213.428228 
L 246.244937 -217.873437 
L 244.613508 -222.185199 
L 242.982078 -226.35374 
L 241.350648 -230.370942 
L 239.719218 -234.230408 
L 238.087788 -237.927479 
L 236.456358 -241.459203 
L 234.824928 -244.824244 
L 233.193498 -248.022727 
L 231.562069 -251.056012 
L 229.930639 -253.926405 
L 228.299209 -256.636808 
L 226.667779 -259.190306 
L 225.036349 -261.589732 
L 223.404919 -263.837195 
L 221.773489 -265.933626 
L 220.142059 -267.878338 
L 218.51063 -269.668646 
L 216.8792 -271.299567 
L 215.24777 -272.763613 
L 213.61634 -274.050714 
L 211.98491 -275.148278 
L 210.35348 -276.041384 
L 208.72205 -276.713135 
L 207.09062 -277.145141 
L 205.459191 -277.318125 
L 203.827761 -277.212639 
L 202.196331 -276.809845 
L 200.564901 -276.092341 
L 198.933471 -275.044991 
L 197.302041 -273.655715 
L 195.670611 -271.916218 
L 194.039181 -269.822596 
L 192.407752 -267.375819 
L 190.776322 -264.582041 
L 189.144892 -261.452736 
L 187.513462 -258.004645 
L 185.882032 -254.25953 
L 184.250602 -250.243756 
L 182.619172 -245.987699 
L 180.987742 -241.525028 
L 179.356313 -236.891864 
L 177.724883 -232.125872 
L 176.093453 -227.265311 
L 174.462023 -222.348083 
L 172.830593 -217.410811 
L 171.199163 -212.487996 
L 169.567733 -207.611257 
L 167.936303 -202.808701 
L 166.304874 -198.104424 
L 164.673444 -193.518162 
L 163.042014 -189.065096 
L 161.410584 -184.755802 
L 159.779154 -180.596343 
L 158.147724 -176.588483 
L 156.516294 -172.730017 
L 154.884864 -169.015181 
L 153.253435 -165.435131 
L 151.622005 -161.978463 
L 149.990575 -158.631756 
L 148.359145 -155.380111 
L 146.727715 -152.207677 
L 145.096285 -149.098146 
L 143.464855 -146.035207 
L 141.833425 -143.002944 
L 140.201995 -139.986191 
L 138.570566 -136.970825 
L 136.939136 -133.944012 
L 135.307706 -130.894404 
L 133.676276 -127.812284 
L 132.044846 -124.689685 
L 130.413416 -121.520468 
L 128.781986 -118.300372 
L 127.150556 -115.027041 
L 125.519127 -111.700026 
L 123.887697 -108.320771 
L 122.256267 -104.892575 
L 120.624837 -101.42053 
L 118.993407 -97.911438 
L 117.361977 -94.373708 
L 115.730547 -90.817217 
L 114.099117 -87.253149 
L 112.467688 -83.69381 
L 110.836258 -80.152403 
L 109.204828 -76.642799 
L 107.573398 -73.179268 
L 105.941968 -69.776213 
L 104.310538 -66.447883 
L 102.679108 -63.208096 
L 101.047678 -60.069966 
L 99.416249 -57.045646 
L 97.784819 -54.146095 
L 96.153389 -51.380884 
L 94.521959 -48.75803 
L 92.890529 -46.283877 
L 91.259099 -43.963022 
L 89.627669 -41.798288 
L 87.996239 -39.790739 
L 86.36481 -37.939743 
L 84.73338 -36.243066 
L 83.10195 -34.69701 
L 81.47052 -33.296567 
L 79.83909 -32.035601 
L 78.20766 -30.907044 
L 76.57623 -29.903089 
L 74.9448 -29.015394 
L 73.313371 -28.235272 
L 71.681941 -27.55387 
L 70.050511 -26.962339 
L 68.419081 -26.451975 
L 66.787651 -26.014348 
L 65.156221 -25.6414 
L 63.524791 -25.325531 
L 61.893361 -25.059657 
L 60.261932 -24.837246 
L 58.630502 -24.652343 
L 56.999072 -24.499573 
L 55.367642 -24.374134 
L 53.736212 -24.271772 
L 52.104782 -24.18876 
L 50.473352 -24.121856 
z
" style="stroke: #1f77b4"/>
    </defs>
    <g clip-path="url(#p89c4ee54ea)">
     <use xlink:href="#m79ed197319" x="0" y="312.512625" style="fill: #1f77b4; fill-opacity: 0.1; stroke: #1f77b4"/>
    </g>
   </g>
   <g id="matplotlib.axis_1">
    <g id="xtick_1">
     <g id="line2d_1">
      <defs>
       <path id="m3592189a41" d="M 0 0 
L 0 3.5 
" style="stroke: #000000; stroke-width: 0.8"/>
      </defs>
      <g>
       <use xlink:href="#m3592189a41" x="66.372565" y="288.6345" style="stroke: #000000; stroke-width: 0.8"/>
      </g>
     </g>
     <g id="text_1">
      <!-- 15000 -->
      <g transform="translate(50.466315 303.232937) scale(0.1 -0.1)">
       <defs>
        <path id="DejaVuSans-31" d="M 794 531 
L 1825 531 
L 1825 4091 
L 703 3866 
L 703 4441 
L 1819 4666 
L 2450 4666 
L 2450 531 
L 3481 531 
L 3481 0 
L 794 0 
L 794 531 
z
" transform="scale(0.015625)"/>
        <path id="DejaVuSans-35" d="M 691 4666 
L 3169 4666 
L 3169 4134 
L 1269 4134 
L 1269 2991 
Q 1406 3038 1543 3061 
Q 1681 3084 1819 3084 
Q 2600 3084 3056 2656 
Q 3513 2228 3513 1497 
Q 3513 744 3044 326 
Q 2575 -91 1722 -91 
Q 1428 -91 1123 -41 
Q 819 9 494 109 
L 494 744 
Q 775 591 1075 516 
Q 1375 441 1709 441 
Q 2250 441 2565 725 
Q 2881 1009 2881 1497 
Q 2881 1984 2565 2268 
Q 2250 2553 1709 2553 
Q 1456 2553 1204 2497 
Q 953 2441 691 2322 
L 691 4666 
z
" transform="scale(0.015625)"/>
        <path id="DejaVuSans-30" d="M 2034 4250 
Q 1547 4250 1301 3770 
Q 1056 3291 1056 2328 
Q 1056 1369 1301 889 
Q 1547 409 2034 409 
Q 2525 409 2770 889 
Q 3016 1369 3016 2328 
Q 3016 3291 2770 3770 
Q 2525 4250 2034 4250 
z
M 2034 4750 
Q 2819 4750 3233 4129 
Q 3647 3509 3647 2328 
Q 3647 1150 3233 529 
Q 2819 -91 2034 -91 
Q 1250 -91 836 529 
Q 422 1150 422 2328 
Q 422 3509 836 4129 
Q 1250 4750 2034 4750 
z
" transform="scale(0.015625)"/>
       </defs>
       <use xlink:href="#DejaVuSans-31"/>
       <use xlink:href="#DejaVuSans-35" x="63.623047"/>
       <use xlink:href="#DejaVuSans-30" x="127.246094"/>
       <use xlink:href="#DejaVuSans-30" x="190.869141"/>
       <use xlink:href="#DejaVuSans-30" x="254.492188"/>
      </g>
     </g>
    </g>
    <g id="xtick_2">
     <g id="line2d_2">
      <g>
       <use xlink:href="#m3592189a41" x="118.604876" y="288.6345" style="stroke: #000000; stroke-width: 0.8"/>
      </g>
     </g>
     <g id="text_2">
      <!-- 20000 -->
      <g transform="translate(102.698626 303.232937) scale(0.1 -0.1)">
       <defs>
        <path id="DejaVuSans-32" d="M 1228 531 
L 3431 531 
L 3431 0 
L 469 0 
L 469 531 
Q 828 903 1448 1529 
Q 2069 2156 2228 2338 
Q 2531 2678 2651 2914 
Q 2772 3150 2772 3378 
Q 2772 3750 2511 3984 
Q 2250 4219 1831 4219 
Q 1534 4219 1204 4116 
Q 875 4013 500 3803 
L 500 4441 
Q 881 4594 1212 4672 
Q 1544 4750 1819 4750 
Q 2544 4750 2975 4387 
Q 3406 4025 3406 3419 
Q 3406 3131 3298 2873 
Q 3191 2616 2906 2266 
Q 2828 2175 2409 1742 
Q 1991 1309 1228 531 
z
" transform="scale(0.015625)"/>
       </defs>
       <use xlink:href="#DejaVuSans-32"/>
       <use xlink:href="#DejaVuSans-30" x="63.623047"/>
       <use xlink:href="#DejaVuSans-30" x="127.246094"/>
       <use xlink:href="#DejaVuSans-30" x="190.869141"/>
       <use xlink:href="#DejaVuSans-30" x="254.492188"/>
      </g>
     </g>
    </g>
    <g id="xtick_3">
     <g id="line2d_3">
      <g>
       <use xlink:href="#m3592189a41" x="170.837186" y="288.6345" style="stroke: #000000; stroke-width: 0.8"/>
      </g>
     </g>
     <g id="text_3">
      <!-- 25000 -->
      <g transform="translate(154.930936 303.232937) scale(0.1 -0.1)">
       <use xlink:href="#DejaVuSans-32"/>
       <use xlink:href="#DejaVuSans-35" x="63.623047"/>
       <use xlink:href="#DejaVuSans-30" x="127.246094"/>
       <use xlink:href="#DejaVuSans-30" x="190.869141"/>
       <use xlink:href="#DejaVuSans-30" x="254.492188"/>
      </g>
     </g>
    </g>
    <g id="xtick_4">
     <g id="line2d_4">
      <g>
       <use xlink:href="#m3592189a41" x="223.069497" y="288.6345" style="stroke: #000000; stroke-width: 0.8"/>
      </g>
     </g>
     <g id="text_4">
      <!-- 30000 -->
      <g transform="translate(207.163247 303.232937) scale(0.1 -0.1)">
       <defs>
        <path id="DejaVuSans-33" d="M 2597 2516 
Q 3050 2419 3304 2112 
Q 3559 1806 3559 1356 
Q 3559 666 3084 287 
Q 2609 -91 1734 -91 
Q 1441 -91 1130 -33 
Q 819 25 488 141 
L 488 750 
Q 750 597 1062 519 
Q 1375 441 1716 441 
Q 2309 441 2620 675 
Q 2931 909 2931 1356 
Q 2931 1769 2642 2001 
Q 2353 2234 1838 2234 
L 1294 2234 
L 1294 2753 
L 1863 2753 
Q 2328 2753 2575 2939 
Q 2822 3125 2822 3475 
Q 2822 3834 2567 4026 
Q 2313 4219 1838 4219 
Q 1578 4219 1281 4162 
Q 984 4106 628 3988 
L 628 4550 
Q 988 4650 1302 4700 
Q 1616 4750 1894 4750 
Q 2613 4750 3031 4423 
Q 3450 4097 3450 3541 
Q 3450 3153 3228 2886 
Q 3006 2619 2597 2516 
z
" transform="scale(0.015625)"/>
       </defs>
       <use xlink:href="#DejaVuSans-33"/>
       <use xlink:href="#DejaVuSans-30" x="63.623047"/>
       <use xlink:href="#DejaVuSans-30" x="127.246094"/>
       <use xlink:href="#DejaVuSans-30" x="190.869141"/>
       <use xlink:href="#DejaVuSans-30" x="254.492188"/>
      </g>
     </g>
    </g>
    <g id="xtick_5">
     <g id="line2d_5">
      <g>
       <use xlink:href="#m3592189a41" x="275.301808" y="288.6345" style="stroke: #000000; stroke-width: 0.8"/>
      </g>
     </g>
     <g id="text_5">
      <!-- 35000 -->
      <g transform="translate(259.395558 303.232937) scale(0.1 -0.1)">
       <use xlink:href="#DejaVuSans-33"/>
       <use xlink:href="#DejaVuSans-35" x="63.623047"/>
       <use xlink:href="#DejaVuSans-30" x="127.246094"/>
       <use xlink:href="#DejaVuSans-30" x="190.869141"/>
       <use xlink:href="#DejaVuSans-30" x="254.492188"/>
      </g>
     </g>
    </g>
    <g id="xtick_6">
     <g id="line2d_6">
      <g>
       <use xlink:href="#m3592189a41" x="327.534119" y="288.6345" style="stroke: #000000; stroke-width: 0.8"/>
      </g>
     </g>
     <g id="text_6">
      <!-- 40000 -->
      <g transform="translate(311.627869 303.232937) scale(0.1 -0.1)">
       <defs>
        <path id="DejaVuSans-34" d="M 2419 4116 
L 825 1625 
L 2419 1625 
L 2419 4116 
z
M 2253 4666 
L 3047 4666 
L 3047 1625 
L 3713 1625 
L 3713 1100 
L 3047 1100 
L 3047 0 
L 2419 0 
L 2419 1100 
L 313 1100 
L 313 1709 
L 2253 4666 
z
" transform="scale(0.015625)"/>
       </defs>
       <use xlink:href="#DejaVuSans-34"/>
       <use xlink:href="#DejaVuSans-30" x="63.623047"/>
       <use xlink:href="#DejaVuSans-30" x="127.246094"/>
       <use xlink:href="#DejaVuSans-30" x="190.869141"/>
       <use xlink:href="#DejaVuSans-30" x="254.492188"/>
      </g>
     </g>
    </g>
    <g id="xtick_7">
     <g id="line2d_7">
      <g>
       <use xlink:href="#m3592189a41" x="379.76643" y="288.6345" style="stroke: #000000; stroke-width: 0.8"/>
      </g>
     </g>
     <g id="text_7">
      <!-- 45000 -->
      <g transform="translate(363.86018 303.232937) scale(0.1 -0.1)">
       <use xlink:href="#DejaVuSans-34"/>
       <use xlink:href="#DejaVuSans-35" x="63.623047"/>
       <use xlink:href="#DejaVuSans-30" x="127.246094"/>
       <use xlink:href="#DejaVuSans-30" x="190.869141"/>
       <use xlink:href="#DejaVuSans-30" x="254.492188"/>
      </g>
     </g>
    </g>
   </g>
   <g id="matplotlib.axis_2">
    <g id="ytick_1">
     <g id="line2d_8">
      <defs>
       <path id="ma488399dd6" d="M 0 0 
L -3.5 0 
" style="stroke: #000000; stroke-width: 0.8"/>
      </defs>
      <g>
       <use xlink:href="#ma488399dd6" x="34.240625" y="288.6345" style="stroke: #000000; stroke-width: 0.8"/>
      </g>
     </g>
     <g id="text_8">
      <!-- 0 -->
      <g transform="translate(20.878125 292.433719) scale(0.1 -0.1)">
       <use xlink:href="#DejaVuSans-30"/>
      </g>
     </g>
    </g>
    <g id="ytick_2">
     <g id="line2d_9">
      <g>
       <use xlink:href="#ma488399dd6" x="34.240625" y="256.877126" style="stroke: #000000; stroke-width: 0.8"/>
      </g>
     </g>
     <g id="text_9">
      <!-- 1 -->
      <g transform="translate(20.878125 260.676344) scale(0.1 -0.1)">
       <use xlink:href="#DejaVuSans-31"/>
      </g>
     </g>
    </g>
    <g id="ytick_3">
     <g id="line2d_10">
      <g>
       <use xlink:href="#ma488399dd6" x="34.240625" y="225.119751" style="stroke: #000000; stroke-width: 0.8"/>
      </g>
     </g>
     <g id="text_10">
      <!-- 2 -->
      <g transform="translate(20.878125 228.91897) scale(0.1 -0.1)">
       <use xlink:href="#DejaVuSans-32"/>
      </g>
     </g>
    </g>
    <g id="ytick_4">
     <g id="line2d_11">
      <g>
       <use xlink:href="#ma488399dd6" x="34.240625" y="193.362377" style="stroke: #000000; stroke-width: 0.8"/>
      </g>
     </g>
     <g id="text_11">
      <!-- 3 -->
      <g transform="translate(20.878125 197.161595) scale(0.1 -0.1)">
       <use xlink:href="#DejaVuSans-33"/>
      </g>
     </g>
    </g>
    <g id="ytick_5">
     <g id="line2d_12">
      <g>
       <use xlink:href="#ma488399dd6" x="34.240625" y="161.605002" style="stroke: #000000; stroke-width: 0.8"/>
      </g>
     </g>
     <g id="text_12">
      <!-- 4 -->
      <g transform="translate(20.878125 165.404221) scale(0.1 -0.1)">
       <use xlink:href="#DejaVuSans-34"/>
      </g>
     </g>
    </g>
    <g id="ytick_6">
     <g id="line2d_13">
      <g>
       <use xlink:href="#ma488399dd6" x="34.240625" y="129.847628" style="stroke: #000000; stroke-width: 0.8"/>
      </g>
     </g>
     <g id="text_13">
      <!-- 5 -->
      <g transform="translate(20.878125 133.646846) scale(0.1 -0.1)">
       <use xlink:href="#DejaVuSans-35"/>
      </g>
     </g>
    </g>
    <g id="ytick_7">
     <g id="line2d_14">
      <g>
       <use xlink:href="#ma488399dd6" x="34.240625" y="98.090253" style="stroke: #000000; stroke-width: 0.8"/>
      </g>
     </g>
     <g id="text_14">
      <!-- 6 -->
      <g transform="translate(20.878125 101.889472) scale(0.1 -0.1)">
       <defs>
        <path id="DejaVuSans-36" d="M 2113 2584 
Q 1688 2584 1439 2293 
Q 1191 2003 1191 1497 
Q 1191 994 1439 701 
Q 1688 409 2113 409 
Q 2538 409 2786 701 
Q 3034 994 3034 1497 
Q 3034 2003 2786 2293 
Q 2538 2584 2113 2584 
z
M 3366 4563 
L 3366 3988 
Q 3128 4100 2886 4159 
Q 2644 4219 2406 4219 
Q 1781 4219 1451 3797 
Q 1122 3375 1075 2522 
Q 1259 2794 1537 2939 
Q 1816 3084 2150 3084 
Q 2853 3084 3261 2657 
Q 3669 2231 3669 1497 
Q 3669 778 3244 343 
Q 2819 -91 2113 -91 
Q 1303 -91 875 529 
Q 447 1150 447 2328 
Q 447 3434 972 4092 
Q 1497 4750 2381 4750 
Q 2619 4750 2861 4703 
Q 3103 4656 3366 4563 
z
" transform="scale(0.015625)"/>
       </defs>
       <use xlink:href="#DejaVuSans-36"/>
      </g>
     </g>
    </g>
    <g id="ytick_8">
     <g id="line2d_15">
      <g>
       <use xlink:href="#ma488399dd6" x="34.240625" y="66.332879" style="stroke: #000000; stroke-width: 0.8"/>
      </g>
     </g>
     <g id="text_15">
      <!-- 7 -->
      <g transform="translate(20.878125 70.132097) scale(0.1 -0.1)">
       <defs>
        <path id="DejaVuSans-37" d="M 525 4666 
L 3525 4666 
L 3525 4397 
L 1831 0 
L 1172 0 
L 2766 4134 
L 525 4134 
L 525 4666 
z
" transform="scale(0.015625)"/>
       </defs>
       <use xlink:href="#DejaVuSans-37"/>
      </g>
     </g>
    </g>
    <g id="ytick_9">
     <g id="line2d_16">
      <g>
       <use xlink:href="#ma488399dd6" x="34.240625" y="34.575504" style="stroke: #000000; stroke-width: 0.8"/>
      </g>
     </g>
     <g id="text_16">
      <!-- 8 -->
      <g transform="translate(20.878125 38.374723) scale(0.1 -0.1)">
       <defs>
        <path id="DejaVuSans-38" d="M 2034 2216 
Q 1584 2216 1326 1975 
Q 1069 1734 1069 1313 
Q 1069 891 1326 650 
Q 1584 409 2034 409 
Q 2484 409 2743 651 
Q 3003 894 3003 1313 
Q 3003 1734 2745 1975 
Q 2488 2216 2034 2216 
z
M 1403 2484 
Q 997 2584 770 2862 
Q 544 3141 544 3541 
Q 544 4100 942 4425 
Q 1341 4750 2034 4750 
Q 2731 4750 3128 4425 
Q 3525 4100 3525 3541 
Q 3525 3141 3298 2862 
Q 3072 2584 2669 2484 
Q 3125 2378 3379 2068 
Q 3634 1759 3634 1313 
Q 3634 634 3220 271 
Q 2806 -91 2034 -91 
Q 1263 -91 848 271 
Q 434 634 434 1313 
Q 434 1759 690 2068 
Q 947 2378 1403 2484 
z
M 1172 3481 
Q 1172 3119 1398 2916 
Q 1625 2713 2034 2713 
Q 2441 2713 2670 2916 
Q 2900 3119 2900 3481 
Q 2900 3844 2670 4047 
Q 2441 4250 2034 4250 
Q 1625 4250 1398 4047 
Q 1172 3844 1172 3481 
z
" transform="scale(0.015625)"/>
       </defs>
       <use xlink:href="#DejaVuSans-38"/>
      </g>
     </g>
    </g>
    <g id="text_17">
     <!-- Плотность -->
     <g transform="translate(14.798438 174.587094) rotate(-90) scale(0.1 -0.1)">
      <defs>
       <path id="DejaVuSans-44" d="M 1259 4147 
L 1259 519 
L 2022 519 
Q 2988 519 3436 956 
Q 3884 1394 3884 2338 
Q 3884 3275 3436 3711 
Q 2988 4147 2022 4147 
L 1259 4147 
z
M 628 4666 
L 1925 4666 
Q 3281 4666 3915 4102 
Q 4550 3538 4550 2338 
Q 4550 1131 3912 565 
Q 3275 0 1925 0 
L 628 0 
L 628 4666 
z
" transform="scale(0.015625)"/>
       <path id="DejaVuSans-65" d="M 3597 1894 
L 3597 1613 
L 953 1613 
Q 991 1019 1311 708 
Q 1631 397 2203 397 
Q 2534 397 2845 478 
Q 3156 559 3463 722 
L 3463 178 
Q 3153 47 2828 -22 
Q 2503 -91 2169 -91 
Q 1331 -91 842 396 
Q 353 884 353 1716 
Q 353 2575 817 3079 
Q 1281 3584 2069 3584 
Q 2775 3584 3186 3129 
Q 3597 2675 3597 1894 
z
M 3022 2063 
Q 3016 2534 2758 2815 
Q 2500 3097 2075 3097 
Q 1594 3097 1305 2825 
Q 1016 2553 972 2059 
L 3022 2063 
z
" transform="scale(0.015625)"/>
       <path id="DejaVuSans-6e" d="M 3513 2113 
L 3513 0 
L 2938 0 
L 2938 2094 
Q 2938 2591 2744 2837 
Q 2550 3084 2163 3084 
Q 1697 3084 1428 2787 
Q 1159 2491 1159 1978 
L 1159 0 
L 581 0 
L 581 3500 
L 1159 3500 
L 1159 2956 
Q 1366 3272 1645 3428 
Q 1925 3584 2291 3584 
Q 2894 3584 3203 3211 
Q 3513 2838 3513 2113 
z
" transform="scale(0.015625)"/>
       <path id="DejaVuSans-73" d="M 2834 3397 
L 2834 2853 
Q 2591 2978 2328 3040 
Q 2066 3103 1784 3103 
Q 1356 3103 1142 2972 
Q 928 2841 928 2578 
Q 928 2378 1081 2264 
Q 1234 2150 1697 2047 
L 1894 2003 
Q 2506 1872 2764 1633 
Q 3022 1394 3022 966 
Q 3022 478 2636 193 
Q 2250 -91 1575 -91 
Q 1294 -91 989 -36 
Q 684 19 347 128 
L 347 722 
Q 666 556 975 473 
Q 1284 391 1588 391 
Q 1994 391 2212 530 
Q 2431 669 2431 922 
Q 2431 1156 2273 1281 
Q 2116 1406 1581 1522 
L 1381 1569 
Q 847 1681 609 1914 
Q 372 2147 372 2553 
Q 372 3047 722 3315 
Q 1072 3584 1716 3584 
Q 2034 3584 2315 3537 
Q 2597 3491 2834 3397 
z
" transform="scale(0.015625)"/>
       <path id="DejaVuSans-69" d="M 603 3500 
L 1178 3500 
L 1178 0 
L 603 0 
L 603 3500 
z
M 603 4863 
L 1178 4863 
L 1178 4134 
L 603 4134 
L 603 4863 
z
" transform="scale(0.015625)"/>
       <path id="DejaVuSans-74" d="M 1172 4494 
L 1172 3500 
L 2356 3500 
L 2356 3053 
L 1172 3053 
L 1172 1153 
Q 1172 725 1289 603 
Q 1406 481 1766 481 
L 2356 481 
L 2356 0 
L 1766 0 
Q 1100 0 847 248 
Q 594 497 594 1153 
L 594 3053 
L 172 3053 
L 172 3500 
L 594 3500 
L 594 4494 
L 1172 4494 
z
" transform="scale(0.015625)"/>
       <path id="DejaVuSans-79" d="M 2059 -325 
Q 1816 -950 1584 -1140 
Q 1353 -1331 966 -1331 
L 506 -1331 
L 506 -850 
L 844 -850 
Q 1081 -850 1212 -737 
Q 1344 -625 1503 -206 
L 1606 56 
L 191 3500 
L 800 3500 
L 1894 763 
L 2988 3500 
L 3597 3500 
L 2059 -325 
z
" transform="scale(0.015625)"/>
      </defs>
      <use xlink:href="#DejaVuSans-44"/>
      <use xlink:href="#DejaVuSans-65" x="77.001953"/>
      <use xlink:href="#DejaVuSans-6e" x="138.525391"/>
      <use xlink:href="#DejaVuSans-73" x="201.904297"/>
      <use xlink:href="#DejaVuSans-69" x="254.003906"/>
      <use xlink:href="#DejaVuSans-74" x="281.787109"/>
      <use xlink:href="#DejaVuSans-79" x="320.996094"/>
     </g>
    </g>
    <g id="text_18">
     <!-- 1e−5 -->
     <g transform="translate(34.240625 19.5225) scale(0.1 -0.1)">
      <defs>
       <path id="DejaVuSans-2212" d="M 678 2272 
L 4684 2272 
L 4684 1741 
L 678 1741 
L 678 2272 
z
" transform="scale(0.015625)"/>
      </defs>
      <use xlink:href="#DejaVuSans-31"/>
      <use xlink:href="#DejaVuSans-65" x="63.623047"/>
      <use xlink:href="#DejaVuSans-2212" x="125.146484"/>
      <use xlink:href="#DejaVuSans-35" x="208.935547"/>
     </g>
    </g>
   </g>
   <g id="patch_3">
    <path d="M 34.240625 288.6345 
L 34.240625 22.5225 
" style="fill: none; stroke: #000000; stroke-width: 0.8; stroke-linejoin: miter; stroke-linecap: square"/>
   </g>
   <g id="patch_4">
    <path d="M 391.360625 288.6345 
L 391.360625 22.5225 
" style="fill: none; stroke: #000000; stroke-width: 0.8; stroke-linejoin: miter; stroke-linecap: square"/>
   </g>
   <g id="patch_5">
    <path d="M 34.240625 288.6345 
L 391.360625 288.6345 
" style="fill: none; stroke: #000000; stroke-width: 0.8; stroke-linejoin: miter; stroke-linecap: square"/>
   </g>
   <g id="patch_6">
    <path d="M 34.240625 22.5225 
L 391.360625 22.5225 
" style="fill: none; stroke: #000000; stroke-width: 0.8; stroke-linejoin: miter; stroke-linecap: square"/>
   </g>
   <g id="text_19">
    <!-- Выборка продаж автомобилей -->
    <g transform="translate(185.242813 16.5225) scale(0.12 -0.12)">
     <defs>
      <path id="DejaVuSans-412" d="M 1259 2228 
L 1259 519 
L 2272 519 
Q 2781 519 3026 730 
Q 3272 941 3272 1375 
Q 3272 1813 3026 2020 
Q 2781 2228 2272 2228 
L 1259 2228 
z
M 1259 4147 
L 1259 2741 
L 2194 2741 
Q 2656 2741 2882 2914 
Q 3109 3088 3109 3444 
Q 3109 3797 2882 3972 
Q 2656 4147 2194 4147 
L 1259 4147 
z
M 628 4666 
L 2241 4666 
Q 2963 4666 3353 4366 
Q 3744 4066 3744 3513 
Q 3744 3084 3544 2831 
Q 3344 2578 2956 2516 
Q 3422 2416 3680 2098 
Q 3938 1781 3938 1306 
Q 3938 681 3513 340 
Q 3088 0 2303 0 
L 628 0 
L 628 4666 
z
" transform="scale(0.015625)"/>
      <path id="DejaVuSans-44b" d="M 3907 3500 
L 4482 3500 
L 4482 0 
L 3907 0 
L 3907 3500 
z
M 4195 3584 
L 4195 3584 
z
M 2781 1038 
Q 2781 1319 2576 1466 
Q 2372 1613 1978 1613 
L 1159 1613 
L 1159 459 
L 1978 459 
Q 2372 459 2576 607 
Q 2781 756 2781 1038 
z
M 581 3500 
L 1159 3500 
L 1159 2072 
L 2003 2072 
Q 2672 2072 3033 1817 
Q 3394 1563 3394 1038 
Q 3394 513 3033 256 
Q 2672 0 2003 0 
L 581 0 
L 581 3500 
z
" transform="scale(0.015625)"/>
      <path id="DejaVuSans-431" d="M 1991 3584 
Q 2741 3584 3169 3096 
Q 3597 2609 3597 1747 
Q 3597 888 3169 398 
Q 2741 -91 1991 -91 
Q 1238 -91 822 384 
Q 406 859 384 1747 
L 366 2463 
Q 350 2834 350 2963 
Q 350 3463 531 3831 
Q 816 4409 1308 4659 
Q 1800 4909 2625 4916 
Q 3006 4919 3175 4972 
L 3334 4516 
Q 3181 4453 3041 4450 
L 2259 4397 
Q 1866 4369 1628 4231 
Q 1006 3866 947 3388 
L 925 3213 
Q 1331 3584 1991 3584 
z
M 1991 3097 
Q 1528 3097 1259 2736 
Q 991 2375 991 1747 
Q 991 1119 1258 758 
Q 1525 397 1991 397 
Q 2450 397 2719 759 
Q 2988 1122 2988 1747 
Q 2988 2369 2719 2733 
Q 2450 3097 1991 3097 
z
" transform="scale(0.015625)"/>
      <path id="DejaVuSans-43e" d="M 1959 3097 
Q 1497 3097 1228 2736 
Q 959 2375 959 1747 
Q 959 1119 1226 758 
Q 1494 397 1959 397 
Q 2419 397 2687 759 
Q 2956 1122 2956 1747 
Q 2956 2369 2687 2733 
Q 2419 3097 1959 3097 
z
M 1959 3584 
Q 2709 3584 3137 3096 
Q 3566 2609 3566 1747 
Q 3566 888 3137 398 
Q 2709 -91 1959 -91 
Q 1206 -91 779 398 
Q 353 888 353 1747 
Q 353 2609 779 3096 
Q 1206 3584 1959 3584 
z
" transform="scale(0.015625)"/>
      <path id="DejaVuSans-440" d="M 1159 525 
L 1159 -1331 
L 581 -1331 
L 581 3500 
L 1159 3500 
L 1159 2969 
Q 1341 3281 1617 3432 
Q 1894 3584 2278 3584 
Q 2916 3584 3314 3078 
Q 3713 2572 3713 1747 
Q 3713 922 3314 415 
Q 2916 -91 2278 -91 
Q 1894 -91 1617 61 
Q 1341 213 1159 525 
z
M 3116 1747 
Q 3116 2381 2855 2742 
Q 2594 3103 2138 3103 
Q 1681 3103 1420 2742 
Q 1159 2381 1159 1747 
Q 1159 1113 1420 752 
Q 1681 391 2138 391 
Q 2594 391 2855 752 
Q 3116 1113 3116 1747 
z
" transform="scale(0.015625)"/>
      <path id="DejaVuSans-43a" d="M 581 3500 
L 1153 3500 
L 1153 1856 
L 2775 3500 
L 3481 3500 
L 2144 2147 
L 3653 0 
L 3009 0 
L 1769 1766 
L 1153 1141 
L 1153 0 
L 581 0 
L 581 3500 
z
" transform="scale(0.015625)"/>
      <path id="DejaVuSans-438" d="M 3578 3500 
L 3578 0 
L 3006 0 
L 3006 2809 
L 1319 0 
L 581 0 
L 581 3500 
L 1153 3500 
L 1153 697 
L 2838 3500 
L 3578 3500 
z
" transform="scale(0.015625)"/>
     </defs>
     <use xlink:href="#DejaVuSans-412"/>
     <use xlink:href="#DejaVuSans-44b" x="68.603516"/>
     <use xlink:href="#DejaVuSans-431" x="147.558594"/>
     <use xlink:href="#DejaVuSans-43e" x="209.228516"/>
     <use xlink:href="#DejaVuSans-440" x="270.410156"/>
     <use xlink:href="#DejaVuSans-43a" x="333.886719"/>
     <use xlink:href="#DejaVuSans-438" x="394.287109"/>
    </g>
   </g>
   <g id="legend_1">
    <g id="patch_7">
     <path d="M 328.484063 45.200625 
L 384.360625 45.200625 
Q 386.360625 45.200625 386.360625 43.200625 
L 386.360625 29.5225 
Q 386.360625 27.5225 384.360625 27.5225 
L 328.484063 27.5225 
Q 326.484063 27.5225 326.484063 29.5225 
L 326.484063 43.200625 
Q 326.484063 45.200625 328.484063 45.200625 
z
" style="fill: #ffffff; opacity: 0.8; stroke: #cccccc; stroke-linejoin: miter"/>
    </g>
    <g id="patch_8">
     <path d="M 330.484063 39.120937 
L 350.484063 39.120937 
L 350.484063 32.120937 
L 330.484063 32.120937 
z
" style="fill: #1f77b4; fill-opacity: 0.1; stroke: #1f77b4; stroke-linejoin: miter"/>
    </g>
    <g id="text_20">
     <!-- Data -->
     <g transform="translate(358.484063 39.120937) scale(0.1 -0.1)">
      <defs>
       <path id="DejaVuSans-61" d="M 2194 1759 
Q 1497 1759 1228 1600 
Q 959 1441 959 1056 
Q 959 750 1161 570 
Q 1363 391 1709 391 
Q 2188 391 2477 730 
Q 2766 1069 2766 1631 
L 2766 1759 
L 2194 1759 
z
M 3341 1997 
L 3341 0 
L 2766 0 
L 2766 531 
Q 2569 213 2275 61 
Q 1981 -91 1556 -91 
Q 1019 -91 701 211 
Q 384 513 384 1019 
Q 384 1609 779 1909 
Q 1175 2209 1959 2209 
L 2766 2209 
L 2766 2266 
Q 2766 2663 2505 2880 
Q 2244 3097 1772 3097 
Q 1472 3097 1187 3025 
Q 903 2953 641 2809 
L 641 3341 
Q 956 3463 1253 3523 
Q 1550 3584 1831 3584 
Q 2591 3584 2966 3190 
Q 3341 2797 3341 1997 
z
" transform="scale(0.015625)"/>
      </defs>
      <use xlink:href="#DejaVuSans-44"/>
      <use xlink:href="#DejaVuSans-61" x="77.001953"/>
      <use xlink:href="#DejaVuSans-74" x="138.28125"/>
      <use xlink:href="#DejaVuSans-61" x="177.490234"/>
     </g>
    </g>
   </g>
  </g>
 </g>
 <defs>
  <clipPath id="p89c4ee54ea">
   <rect x="34.240625" y="22.5225" width="357.12" height="266.112"/>
  </clipPath>
 </defs>
</svg>
